<svg width="256" height="256" viewBox="0 0 256 256" fill="none" xmlns="http://www.w3.org/2000/svg">
  <rect width="256" height="256" rx="56" fill="#D6001C"/>
  <path d="M128 43C178.078 43 218 82.9219 218 133C218 183.078 178.078 223 128 223C77.9219 223 38 183.078 38 133C38 82.9219 77.9219 43 128 43Z" fill="white"/>
  <path d="M128 64C166.297 64 197 94.7031 197 133C197 171.297 166.297 202 128 202C89.7031 202 59 171.297 59 133C59 94.7031 89.7031 64 128 64Z" fill="#D6001C"/>
  <path d="M128 85L149 106H138V149H118V106H107L128 85Z" fill="white"/>
  <circle cx="128" cy="171" r="11" fill="white"/>
</svg>