<svg width="128" height="128" viewBox="0 0 128 128" fill="none" xmlns="http://www.w3.org/2000/svg">
  <rect width="128" height="128" rx="28" fill="#D6001C"/>
  <path d="M64 21C89.0391 21 109 40.9609 109 66C109 91.0391 89.0391 111 64 111C38.9609 111 19 91.0391 19 66C19 40.9609 38.9609 21 64 21Z" fill="white"/>
  <path d="M64 32C83.1484 32 99 47.8516 99 67C99 86.1484 83.1484 102 64 102C44.8516 102 29 86.1484 29 67C29 47.8516 44.8516 32 64 32Z" fill="#D6001C"/>
  <path d="M64 43L75 54H69V75H59V54H53L64 43Z" fill="white"/>
  <circle cx="64" cy="85" r="5" fill="white"/>
</svg>