<svg width="192" height="192" viewBox="0 0 192 192" fill="none" xmlns="http://www.w3.org/2000/svg">
  <rect width="192" height="192" rx="42" fill="#D6001C"/>
  <path d="M96 32C133.555 32 164 62.4453 164 100C164 137.555 133.555 168 96 168C58.4453 168 28 137.555 28 100C28 62.4453 58.4453 32 96 32Z" fill="white"/>
  <path d="M96 48C124.719 48 148 71.2812 148 100C148 128.719 124.719 152 96 152C67.2812 152 44 128.719 44 100C44 71.2812 67.2812 48 96 48Z" fill="#D6001C"/>
  <path d="M96 64L112 80H104V112H88V80H80L96 64Z" fill="white"/>
  <circle cx="96" cy="128" r="8" fill="white"/>
</svg>