<svg width="72" height="72" viewBox="0 0 72 72" fill="none" xmlns="http://www.w3.org/2000/svg">
  <rect width="72" height="72" rx="16" fill="#D6001C"/>
  <path d="M36 12C50.3594 12 62 23.6406 62 38C62 52.3594 50.3594 64 36 64C21.6406 64 10 52.3594 10 38C10 23.6406 21.6406 12 36 12Z" fill="white"/>
  <path d="M36 18C46.9688 18 56 27.0312 56 38C56 48.9688 46.9688 58 36 58C25.0312 58 16 48.9688 16 38C16 27.0312 25.0312 18 36 18Z" fill="#D6001C"/>
  <path d="M36 24L42 30H39V42H33V30H30L36 24Z" fill="white"/>
  <circle cx="36" cy="48" r="3" fill="white"/>
</svg>